<?xml version="1.0" encoding="utf-8"?>
<!-- Generator: Adobe Illustrator 27.7.0, SVG Export Plug-In . SVG Version: 6.00 Build 0)  -->
<svg version="1.1" xmlns="http://www.w3.org/2000/svg" xmlns:xlink="http://www.w3.org/1999/xlink" x="0px" y="0px"
	 viewBox="0 0 800 800" style="enable-background:new 0 0 800 800;" xml:space="preserve">
<style type="text/css">
	.st0{fill:#94989B;}
	.st1{display:none;fill:#94989B;}
	.st2{fill:#3E4347;}
	.st3{fill:#D0D0D0;}
	.st4{display:none;}
	.st5{display:inline;fill:#D3D3D3;}
	
		.st6{clip-path:url(#SVGID_00000024723822332096189950000004753099604239732876_);fill:url(#SVGID_00000122705668021548291360000001922496394501272979_);}
</style>
<g id="Layer_3">
	<path class="st0" d="M588.5,102.4c-43.3,0-92.7,22.3-121.6,57.3c27.3-22.5,62.2-36,100.3-36c87.1,0,157.6,70.6,157.6,157.7
		c0,38.1-13.5,73.1-36,100.3c35-28.9,57.3-72.6,57.3-121.6C746.1,173,675.5,102.4,588.5,102.4z M571.4,439c-1.5,0-2.9,0-4.4-0.1
		c2.8,4.4,4.4,9.5,4.4,14.8l71.5-14.7v74.5l21.3,4.1v-99.8l-21.9,4.5C621,432.9,596.9,439,571.4,439z M259.5,45.6
		c-56.8,0-107.6,25.4-141.8,65.6c32.5-27.6,74.5-44.3,120.5-44.3c91.8,0,168.1,66.5,183.3,154c4.9-11.9,11.3-23,18.8-33.2
		C420.6,106.2,347.1,45.6,259.5,45.6z"/>
	<path class="st0" d="M626.8,64.1c-49,0-92.7,22.3-121.6,57.3c27.3-22.5,62.2-36,100.3-36c87.1,0,157.6,70.6,157.6,157.7
		c0,38.1-13.5,73.1-36,100.3c35-28.9,57.3-72.6,57.3-121.6C784.4,134.6,713.8,64.1,626.8,64.1z M605.5,400.7c-1.5,0-2.9,0-4.4-0.1
		c2.8,4.4,4.4,9.5,4.4,14.8l71.5-14.7v74.5l21.3,4.1v-99.8l-21.9,4.5C655,394.6,631,400.7,605.5,400.7z M297.8,7.3
		c-56.8,0-107.6,25.4-141.8,65.6c32.5-27.6,74.5-44.3,120.5-44.3c91.8,0,168.1,66.5,183.3,154c4.9-11.9,11.3-23,18.8-33.2
		C458.9,67.9,385.4,7.3,297.8,7.3z"/>
	<path class="st1" d="M588.9,405.3c-1.4,0-2.8,0-4.1-0.1c2.6,4.1,4.1,9,4.1,13.9l46.5-9.6c18.5-9.3,34.7-22.3,47.7-38.1
		C657.5,392.6,624.7,405.3,588.9,405.3z M588.9,510.1l47.1,9v-23.8l-47.1-9V510.1z M495,633.4v20h47.2c12.6,0,23.1-9.4,25.9-20.7
		c-1.9,0.5-3.9,0.7-5.9,0.7H495z M444.3,289.7c-4.2,11.8-9.7,23-16.3,33.5c9,27.5,25.8,51.5,47.8,69.3h52.6
		C486.3,373.7,454.6,335.7,444.3,289.7z M373.6,633.4h-80c-12.6,0-23-9.3-25.9-20.6l-95.6,48.2V489.5l-20-9.9v201.5l95.6-48.2
		c2.8,11.3,13.3,20.6,25.9,20.6h80v54.3H475v-20H373.6V633.4z M474.6,162.9c-9.3,7.7-17.7,16.6-24.9,26.3c0.9,3.7,1.7,7.4,2.3,11.2
		C457.7,186.8,465.3,174.2,474.6,162.9z M393,363.7c-14,12-30,21.7-47.3,28.8h16.1C373.3,384.2,383.8,374.5,393,363.7z M246.9,439.2
		v57.5l20,9.9v-87.4c0-5,1.5-9.9,4.2-14C178.6,400.6,105,324.2,105,230.5c0-43.2,15.7-82.7,41.6-113.2
		C108.9,149.4,85,197.2,85,250.5c0,93.6,73.7,170.1,166.2,174.6C248.5,429.3,246.9,434.2,246.9,439.2z"/>
	<path class="st1" d="M717,277.2c0-81.8-66.3-148.1-148.1-148.1c-61.7,0-114.6,37.7-136.9,91.4c-14.2-82.2-85.9-144.7-172.2-144.7
		C163.2,75.8,85,154,85,250.5c0,93.6,73.7,170.1,166.2,174.6c-2.7,4.2-4.2,9-4.2,14v87.4l-94.8-47v201.5l95.6-48.2
		c2.8,11.3,13.3,20.6,25.9,20.6h80v54.3H475v-54.3h67.2c14.8,0,26.7-12.8,26.7-26.7V506.3l67.1,12.8v-93.8l-67.1,13.8
		c0-4.9-1.5-9.8-4.1-13.9c1.4,0,2.8,0.1,4.1,0.1C650.7,425.3,717,359,717,277.2z M325.6,412.5c45.8-18.6,81.9-56.1,98.7-102.8
		c10.3,46,42,84,84.2,102.8H325.6z"/>
</g>
<g id="Layer_2">
	<path class="st0" d="M327.4,693.4h129.3v56.8H327.4V693.4z"/>
	<g>
		<path class="st2" d="M556.5,664c0,14.7-12.6,28.4-28.4,28.4H242.3c-15.8,0-28.4-13.7-28.4-28.4V464.3c0-14.7,12.6-28.4,28.4-28.4
			h285.9c15.8,0,28.4,13.7,28.4,28.4L556.5,664"/>
		<circle class="st2" cx="227.6" cy="263.6" r="186"/>
	</g>
	<g>
		<circle class="st3" cx="161.4" cy="169" r="43.1"/>
		<circle class="st3" cx="293.8" cy="169" r="43.1"/>
		
			<ellipse transform="matrix(0.1602 -0.9871 0.9871 0.1602 -5.1058 575.8097)" class="st3" cx="335.8" cy="290.9" rx="43.1" ry="43.1"/>
		<circle class="st3" cx="227.6" cy="376" r="43.1"/>
		<circle class="st3" cx="119.3" cy="290.9" r="43.1"/>
		<circle class="st3" cx="211.8" cy="239.4" r="10.5"/>
		<circle class="st3" cx="244.4" cy="239.4" r="10.5"/>
		<circle class="st3" cx="254.9" cy="269.9" r="10.5"/>
		<circle class="st3" cx="227.6" cy="290.9" r="10.5"/>
		<circle class="st3" cx="200.3" cy="269.9" r="10.5"/>
	</g>
	<circle class="st2" cx="556.5" cy="292" r="157.6"/>
	<g>
		<circle class="st3" cx="500.8" cy="213.1" r="35.7"/>
		<circle class="st3" cx="612.3" cy="212.1" r="35.7"/>
		<circle class="st3" cx="649" cy="315.1" r="35.7"/>
		<circle class="st3" cx="556.5" cy="387.6" r="35.7"/>
		<circle class="st3" cx="465.1" cy="315.1" r="35.7"/>
		<circle class="st3" cx="542.9" cy="272" r="9.5"/>
		<circle class="st3" cx="571.3" cy="272" r="9.5"/>
		<circle class="st3" cx="579.7" cy="297.2" r="9.5"/>
		<circle class="st3" cx="556.5" cy="316.1" r="9.5"/>
		<circle class="st3" cx="534.5" cy="297.2" r="9.5"/>
	</g>
	<g>
		<path class="st2" d="M113,507.4v214.4L227.6,664v-99.8L113,507.4z"/>
		<path class="st2" d="M628,449.6v99.8l-71.5-13.7v-71.5L628,449.6z"/>
	</g>
</g>
<g id="Layer_4">
	<g>
		<g class="st4">
			<path class="st5" d="M211.1,606.8l21.5-16c5.2,9.6,12.3,14,19.4,14c11.3,0,17.4-5.8,17.4-24.4v-90.5h31.6V583
				c0,26.9-13.9,49-44.8,49C234.8,632,220.8,623.7,211.1,606.8z"/>
			<path class="st5" d="M333.2,489.9h88.1v26.5h-56.5v32.4H413v26.5h-48.3v54.3h-31.6V489.9z"/>
			<path class="st5" d="M445.4,489.9h48c30.7,0,55.5,11,55.5,44.9c0,32.8-25,47.3-54.6,47.3h-17.3v47.4h-31.6V489.9z M492.3,557
				c17.4,0,25.6-7.7,25.6-22.3c0-14.6-9.3-19.8-26.4-19.8h-14.5V557H492.3z"/>
		</g>
	</g>
	<g>
		<defs>
			<path id="SVGID_1_" d="M486.6,487.9c0-0.1,0-0.3,0-0.5c0-8.9-4.6-17-12.3-21.5l-45.4-26.6c-3.8-2.2-8.1-3.4-12.6-3.4
				c-4.3,0-8.6,1.1-12.3,3.2L386,449.5c-0.7,0.4-1.4,0.8-2.1,1.4c0,0,0,0,0,0l-0.3,0.2l0,0c-6.4,4.7-10.2,12.1-10.2,20v30
				c-0.7-0.8-1.4-1.5-2.1-2.1c-2.7-2.3-6-3.5-9.4-3.5c-1.8,0-3.4,0.4-4.8,1.1c-2.6,1.3-19.1,10.3-19.2,10.4l-0.3,0.1l0,0
				c-1.9,1.1-4,3.5-4,8.6v45.2l-57.8,33.3c-3.5,2-6.3,4.9-8.3,8.3c-2,3.5-3.1,7.4-3.1,11.4c0,0.1,0,0.2,0,0.3h0v23.8
				c0,3.7,1,7.3,2.8,10.4c1.8,3.2,4.5,5.8,7.7,7.6l50.7,29.1c3.4,2,7.3,3,11.2,3h0c3.9,0,7.8-1,11.2-3l0,0l0,0
				c0.1-0.1,0.2-0.2,0.4-0.2c0,0,0,0,0,0l0,0l0.3-0.1l18.1-10.3c6.5-3.7,12.5-8.9,12.5-21.6l0-28.9c1.2,1.2,2.5,2.2,3.9,3
				c1.9,1.1,4.1,1.7,6.1,1.7c1.7,0,3.4-0.4,4.8-1.3c0.1,0,0.1-0.1,0.2-0.1c0,0,0,0,0,0l0.1,0l17.5-10c4.4-2.6,6.9-6.9,6.9-11.7
				v-41.9l55.4-32c7.7-4.4,12.4-12.7,12.4-21.5L486.6,487.9L486.6,487.9z M418.9,510.4v-23.8l20.9,12L418.9,510.4z M418.9,541.2
				l55.4-32.3c2.4-1.4,4.5-3.2,6.4-5.2v6.5c0,6.7-3.6,12.9-9.4,16.3l-52.4,30.2V541.2z M379.5,520.2c0-0.1,0-0.3,0-0.4l0-48.7
				c0-5.9,2.8-11.5,7.6-15.1c2.8-1.6,6.1-2.5,9.3-2.5c3.3,0,6.5,0.9,9.4,2.5l49.3,28.8c1.3,0.8,1.4,2,1.4,2.5c0,0.5-0.2,1.8-1.5,2.5
				l-9.3,5.2l-39.1-22.6c-1.4-0.8-2.9-1.2-4.5-1.2c-1.6,0-3.1,0.4-4.5,1.2c-2.8,1.6-4.5,4.5-4.5,7.8v125.9l0,11.1c0,2.3-0.7,4-2,4.8
				c-0.5,0.3-1.1,0.4-1.8,0.4c-1,0-2-0.3-3.1-0.9c-4.3-2.5-6.9-7.3-6.9-12.8l0-1.4l0-16.6v-33.3l0-36.8
				C379.5,520.5,379.5,520.3,379.5,520.2z M471.2,503.6l-52.3,30.5v-16.8l39.2-22.2c2.8-1.6,4.5-4.5,4.6-7.7c0-3.3-1.6-6.2-4.4-7.8
				l-49.3-28.8c-2.4-1.4-5.1-2.4-7.9-2.9l6-3.4c2.8-1.6,6-2.5,9.3-2.5c3.3,0,6.6,0.9,9.5,2.6l45.4,26.6c5.8,3.4,9.3,9.5,9.3,16.3
				C480.6,494.2,477.1,500.3,471.2,503.6z M408.9,612l-9.6,5.5c0,0,0-0.1,0-0.1l0-137c0-1.5,1-2.3,1.5-2.5c0.3-0.2,0.8-0.4,1.5-0.4
				c0.5,0,1,0.1,1.4,0.4l9.1,5.3v122.4C412.8,608.9,410.7,610.9,408.9,612z M373.4,608.9l0,43.9c0,9.1-3.5,12.9-9.5,16.3l-5.4,3.1
				c0.7-2.2,1.1-4.5,1.2-6.7l0-138.3c0-7.8-3.1-12.8-5.8-15.6c-1.9-2.1-3.8-3.3-4.9-3.9c4.4-2.4,9.7-5.3,11.1-5.9
				c0.5-0.3,1.2-0.4,2-0.4c1.9,0,3.9,0.8,5.5,2.1c4,3.4,5.8,8.2,6,16l0,37.9l0,49.9L373.4,608.9
				C373.4,608.9,373.4,608.9,373.4,608.9z M297.1,616.3c-1.3-0.7-1.4-2-1.4-2.4c0-0.5,0.1-1.7,1.4-2.4l36.6-20.8v16.1l-26.5,15.4
				L297.1,616.3z M333.7,583.7l-39.5,22.5c-2.8,1.6-4.5,4.5-4.5,7.7c0,3.2,1.6,6.1,4.4,7.7l39.6,22.9V655c0,1.5-1,2.3-1.5,2.5
				c-0.3,0.1-0.8,0.4-1.5,0.4c-0.5,0-1-0.1-1.4-0.4l-50.5-29.3c-2.5-1.5-4.6-3.6-6.1-6.1c-1.5-2.5-2.2-5.4-2.2-8.3
				c0-2.9,0.8-5.8,2.2-8.4c1.5-2.5,3.6-4.7,6.1-6.1l54.8-31.6V583.7z M326.3,662.7c1.4,0.8,2.9,1.2,4.5,1.2c1.6,0,3.1-0.4,4.5-1.2
				c2.8-1.6,4.5-4.5,4.5-7.8V515.6c0-1.9,0.4-3,1.1-3.4l0,0l0,0l0,0c0.3-0.1,0.6-0.2,0.9-0.2c0,0,0.1,0,0.1,0c1.3,0,2.9,0.6,3.6,0.9
				l0,0l0,0c0,0,2,0.9,3.9,2.9c2.8,3,4.2,6.8,4.2,11.5l0,138.2c-0.1,2.9-0.9,5.8-2.4,8.3c-1.5,2.5-3.5,4.6-6,6l-0.1,0.1
				c-2.5,1.4-5.3,2.2-8.2,2.2h0c-2.9,0-5.7-0.8-8.2-2.2l-50.7-29.1c-2.3-1.3-4.1-3.2-5.4-5.4c-1.3-2.2-2-4.8-2-7.4v-8.7
				c1.6,1.7,3.4,3.2,5.3,4.3L326.3,662.7z M333.7,613.7v23.7l-20.4-11.8L333.7,613.7z"/>
		</defs>
		<clipPath id="SVGID_00000046313947683662976390000011635445880356524948_">
			<use xlink:href="#SVGID_1_"  style="overflow:visible;"/>
		</clipPath>
		
			<linearGradient id="SVGID_00000132795298532696666030000007469921164882270870_" gradientUnits="userSpaceOnUse" x1="118.6563" y1="630.4387" x2="609.5077" y2="498.9154">
			<stop  offset="0.4674" style="stop-color:#00D2FF"/>
			<stop  offset="0.4812" style="stop-color:#2AAFFF"/>
			<stop  offset="0.5041" style="stop-color:#6A7BFF"/>
			<stop  offset="0.5259" style="stop-color:#9F4FFF"/>
			<stop  offset="0.5462" style="stop-color:#C92DFF"/>
			<stop  offset="0.5644" style="stop-color:#E614FF"/>
			<stop  offset="0.5801" style="stop-color:#F905FF"/>
			<stop  offset="0.5913" style="stop-color:#FF00FF"/>
		</linearGradient>
		
			<rect x="263.9" y="434" style="clip-path:url(#SVGID_00000046313947683662976390000011635445880356524948_);fill:url(#SVGID_00000132795298532696666030000007469921164882270870_);" width="223.3" height="255.3"/>
	</g>
</g>
<g id="Layer_4_copy">
</g>
</svg>
